<svg id="Calque_1" data-name="Calque 1" xmlns="http://www.w3.org/2000/svg" viewBox="0 0 199.89 124.34"><defs><style>.cls-1{fill:#f44414;}.cls-2{fill:#fff;}.cls-3{fill:#0c73ef;}.cls-4{font-size:43.57px;font-family:MyanmarText-Bold, Myanmar Text;font-weight:700;letter-spacing:0em;}</style></defs><rect class="cls-1" y="35.32" width="19.68" height="64.68" transform="translate(19.68 135.32) rotate(180)"/><rect class="cls-2" y="88.3" width="19.68" height="1.85" transform="translate(19.68 178.44) rotate(180)"/><rect class="cls-2" y="91.84" width="19.68" height="1.85" transform="translate(19.68 185.52) rotate(180)"/><rect class="cls-2" y="39.78" width="19.68" height="1.85" transform="translate(19.68 81.42) rotate(180)"/><rect class="cls-2" y="42.71" width="19.68" height="1.85" transform="translate(19.68 87.27) rotate(180)"/><rect class="cls-3" x="20.76" width="21.73" height="100"/><rect class="cls-2" x="20.76" y="88.3" width="21.73" height="1.85" transform="translate(63.26 178.44) rotate(180)"/><rect class="cls-2" x="20.76" y="91.84" width="21.73" height="1.85" transform="translate(63.26 185.52) rotate(180)"/><rect class="cls-2" x="20.76" y="9.65" width="21.73" height="1.85" transform="translate(63.26 21.16) rotate(180)"/><rect class="cls-2" x="20.76" y="13.05" width="21.73" height="1.85" transform="translate(63.26 27.96) rotate(180)"/><polygon class="cls-1" points="43.17 41.7 60.91 31.23 83.72 89.53 65.99 100 43.17 41.7"/><polygon class="cls-2" points="61.86 89.45 79.59 78.98 80.25 80.65 62.51 91.12 61.86 89.45"/><polygon class="cls-2" points="63.11 92.64 80.84 82.18 81.5 83.84 63.76 94.31 63.11 92.64"/><polygon class="cls-2" points="44.75 45.73 62.48 35.26 63.13 36.93 45.4 47.39 44.75 45.73"/><polygon class="cls-2" points="45.78 48.36 63.52 37.9 64.17 39.56 46.43 50.03 45.78 48.36"/><text class="cls-4" transform="translate(87.24 39.59) scale(0.89 1)">Math <tspan x="0" y="52.28">Faress</tspan></text></svg>